HIERARCHY
ROOT Hips
{
	OFFSET 0.000000 0.000000 0.000000
	CHANNELS 6 Xposition Yposition Zposition Xrotation Yrotation Zrotation
	JOINT Thigh.L
	{
		OFFSET 0.053986 0.029422 -0.092840
		CHANNELS 3 Xrotation Yrotation Zrotation
		JOINT Shin.L
		{
			OFFSET 0.058727 0.009483 -0.409953
			CHANNELS 3 Xrotation Yrotation Zrotation
			JOINT Foot.L
			{
				OFFSET -0.041577 0.032039 -0.430915
				CHANNELS 3 Xrotation Yrotation Zrotation
				JOINT Toe.L
				{
					OFFSET 0.046367 -0.122843 -0.063704
					CHANNELS 3 Xrotation Yrotation Zrotation
					End Site
					{
						OFFSET 0.000000 0.050000 0.000000
					}
				}
			}
		}
	}
	JOINT Thigh.R
	{
		OFFSET -0.059243 0.024828 -0.104541
		CHANNELS 3 Xrotation Yrotation Zrotation
		JOINT Shin.R
		{
			OFFSET -0.047748 0.016505 -0.392323
			CHANNELS 3 Xrotation Yrotation Zrotation
			JOINT Foot.R
			{
				OFFSET 0.014552 0.020471 -0.439848
				CHANNELS 3 Xrotation Yrotation Zrotation
				JOINT Toe.R
				{
					OFFSET -0.038283 -0.123654 -0.063651
					CHANNELS 3 Xrotation Yrotation Zrotation
					End Site
					{
						OFFSET 0.000000 0.050000 0.000000
					}
				}
			}
		}
	}
	JOINT Spine
	{
		OFFSET -0.002504 0.022556 0.110721
		CHANNELS 3 Xrotation Yrotation Zrotation
		JOINT Spine.2
		{
			OFFSET 0.007816 0.004393 0.138116
			CHANNELS 3 Xrotation Yrotation Zrotation
			JOINT Chest
			{
				OFFSET -0.010343 -0.021956 0.053557
				CHANNELS 3 Xrotation Yrotation Zrotation
				JOINT Neck
				{
					OFFSET -0.010854 0.024113 0.165007
					CHANNELS 3 Xrotation Yrotation Zrotation
					JOINT Head
					{
						OFFSET 0.023984 -0.022681 0.169020
						CHANNELS 3 Xrotation Yrotation Zrotation
						End Site
						{
							OFFSET 0.000000 0.050000 0.000000
						}
					}
				}
				JOINT Clavicle.L
				{
					OFFSET 0.045553 0.004458 0.084968
					CHANNELS 3 Xrotation Yrotation Zrotation
					JOINT UpperArm.L
					{
						OFFSET 0.118878 0.014016 0.058866
						CHANNELS 3 Xrotation Yrotation Zrotation
						JOINT ForeArm.L
						{
							OFFSET 0.265927 0.039501 -0.075209
							CHANNELS 3 Xrotation Yrotation Zrotation
							JOINT Hand.L
							{
								OFFSET 0.267182 0.002917 0.021567
								CHANNELS 3 Xrotation Yrotation Zrotation
								JOINT Thumb1.L
								{
									OFFSET 0.154604 0.001306 0.009654
									CHANNELS 3 Xrotation Yrotation Zrotation
									JOINT Thumb2.L
									{
										OFFSET 0.029901 0.000326 0.002414
										CHANNELS 3 Xrotation Yrotation Zrotation
										End Site
										{
											OFFSET 0.024917 0.000272 0.002011
										}
									}
								}
								JOINT Index1.L
								{
									OFFSET 0.137604 0.001306 0.009654
									CHANNELS 3 Xrotation Yrotation Zrotation
									JOINT Index2.L
									{
										OFFSET 0.029901 0.000326 0.002414
										CHANNELS 3 Xrotation Yrotation Zrotation
										JOINT Index3.L
										{
											OFFSET 0.021927 0.000239 0.001770
											CHANNELS 3 Xrotation Yrotation Zrotation
											End Site
											{
												OFFSET 0.017941 0.000196 0.001448
											}
										}
									}
								}
								JOINT Middle1.L
								{
									OFFSET 0.119604 0.001306 0.009654
									CHANNELS 3 Xrotation Yrotation Zrotation
									JOINT Middle2.L
									{
										OFFSET 0.030898 0.000337 0.002494
										CHANNELS 3 Xrotation Yrotation Zrotation
										JOINT Middle3.L
										{
											OFFSET 0.021927 0.000239 0.001770
											CHANNELS 3 Xrotation Yrotation Zrotation
											End Site
											{
												OFFSET 0.017941 0.000196 0.001448
											}
										}
									}
								}
								JOINT Ring1.L
								{
									OFFSET 0.101604 0.001306 0.009654
									CHANNELS 3 Xrotation Yrotation Zrotation
									JOINT Ring2.L
									{
										OFFSET 0.028904 0.000316 0.002333
										CHANNELS 3 Xrotation Yrotation Zrotation
										JOINT Ring3.L
										{
											OFFSET 0.019934 0.000218 0.001609
											CHANNELS 3 Xrotation Yrotation Zrotation
											End Site
											{
												OFFSET 0.016944 0.000185 0.001368
											}
										}
									}
								}
								JOINT Pinky1.L
								{
									OFFSET 0.085604 0.001306 0.009654
									CHANNELS 3 Xrotation Yrotation Zrotation
									JOINT Pinky2.L
									{
										OFFSET 0.023921 0.000261 0.001931
										CHANNELS 3 Xrotation Yrotation Zrotation
										JOINT Pinky3.L
										{
											OFFSET 0.016944 0.000185 0.001368
											CHANNELS 3 Xrotation Yrotation Zrotation
											End Site
											{
												OFFSET 0.013954 0.000152 0.001126
											}
										}
									}
								}
							}
						}
					}
				}
				JOINT Clavicle.R
				{
					OFFSET -0.045083 0.010565 0.084169
					CHANNELS 3 Xrotation Yrotation Zrotation
					JOINT UpperArm.R
					{
						OFFSET -0.103147 0.009682 0.054976
						CHANNELS 3 Xrotation Yrotation Zrotation
						JOINT ForeArm.R
						{
							OFFSET -0.283060 0.025610 -0.041021
							CHANNELS 3 Xrotation Yrotation Zrotation
							JOINT Hand.R
							{
								OFFSET -0.263733 0.015956 -0.004729
								CHANNELS 3 Xrotation Yrotation Zrotation
								JOINT Thumb1.R
								{
									OFFSET -0.154762 0.007246 -0.002147
									CHANNELS 3 Xrotation Yrotation Zrotation
									JOINT Thumb2.R
									{
										OFFSET -0.029940 0.001811 -0.000537
										CHANNELS 3 Xrotation Yrotation Zrotation
										End Site
										{
											OFFSET -0.024950 0.001510 -0.000447
										}
									}
								}
								JOINT Index1.R
								{
									OFFSET -0.137762 0.007246 -0.002147
									CHANNELS 3 Xrotation Yrotation Zrotation
									JOINT Index2.R
									{
										OFFSET -0.029940 0.001811 -0.000537
										CHANNELS 3 Xrotation Yrotation Zrotation
										JOINT Index3.R
										{
											OFFSET -0.021956 0.001328 -0.000394
											CHANNELS 3 Xrotation Yrotation Zrotation
											End Site
											{
												OFFSET -0.017964 0.001087 -0.000322
											}
										}
									}
								}
								JOINT Middle1.R
								{
									OFFSET -0.119762 0.007246 -0.002147
									CHANNELS 3 Xrotation Yrotation Zrotation
									JOINT Middle2.R
									{
										OFFSET -0.030938 0.001872 -0.000555
										CHANNELS 3 Xrotation Yrotation Zrotation
										JOINT Middle3.R
										{
											OFFSET -0.021956 0.001328 -0.000394
											CHANNELS 3 Xrotation Yrotation Zrotation
											End Site
											{
												OFFSET -0.017964 0.001087 -0.000322
											}
										}
									}
								}
								JOINT Ring1.R
								{
									OFFSET -0.101762 0.007246 -0.002147
									CHANNELS 3 Xrotation Yrotation Zrotation
									JOINT Ring2.R
									{
										OFFSET -0.028942 0.001751 -0.000519
										CHANNELS 3 Xrotation Yrotation Zrotation
										JOINT Ring3.R
										{
											OFFSET -0.019960 0.001208 -0.000358
											CHANNELS 3 Xrotation Yrotation Zrotation
											End Site
											{
												OFFSET -0.016966 0.001027 -0.000304
											}
										}
									}
								}
								JOINT Pinky1.R
								{
									OFFSET -0.085762 0.007246 -0.002147
									CHANNELS 3 Xrotation Yrotation Zrotation
									JOINT Pinky2.R
									{
										OFFSET -0.023952 0.001449 -0.000429
										CHANNELS 3 Xrotation Yrotation Zrotation
										JOINT Pinky3.R
										{
											OFFSET -0.016966 0.001027 -0.000304
											CHANNELS 3 Xrotation Yrotation Zrotation
											End Site
											{
												OFFSET -0.013972 0.000845 -0.000251
											}
										}
									}
								}
							}
						}
					}
				}
			}
		}
	}
}
MOTION
Frames: 6
Frame Time: 0.04166667
-0.092824 0.351881 1.130233 32.900811 4.273482 6.355591 -43.536798 -1.135958 -7.826349 111.885162 4.518031 -18.654298 -33.167762 -7.529479 1.178642 -3.435121 -2.873811 -0.904367 -73.020769 7.378035 14.733961 134.136579 -9.574997 8.467421 -26.866282 3.884741 4.199435 -3.043988 -5.020051 -0.072557 55.897457 -6.684762 -1.425445 -4.331053 -3.674619 0.668897 -1.600981 1.364707 1.926536 -9.817041 2.717658 10.200625 -18.616207 2.775216 -6.710679 -14.836275 1.424523 -30.265045 -5.643780 32.906298 -35.773555 -5.444827 -11.301026 -29.654883 9.819335 -48.134330 -12.978093 0.000000 0.000000 0.000000 0.000000 0.000000 0.000000 0.000000 0.000000 0.000000 0.000000 0.000000 0.000000 0.000000 0.000000 0.000000 0.000000 0.000000 0.000000 0.000000 0.000000 0.000000 0.000000 0.000000 0.000000 0.000000 0.000000 0.000000 0.000000 0.000000 0.000000 0.000000 0.000000 0.000000 0.000000 0.000000 0.000000 0.000000 0.000000 0.000000 0.000000 0.000000 0.000000 -9.113993 -2.562774 28.529405 -9.853928 -21.854763 28.556954 -4.778817 17.483077 37.710013 8.405082 50.329909 12.181241 0.000000 0.000000 0.000000 0.000000 0.000000 0.000000 0.000000 0.000000 0.000000 0.000000 0.000000 0.000000 0.000000 0.000000 0.000000 0.000000 0.000000 0.000000 0.000000 0.000000 0.000000 0.000000 0.000000 0.000000 0.000000 0.000000 0.000000 0.000000 0.000000 0.000000 0.000000 0.000000 0.000000 0.000000 0.000000 0.000000 0.000000 0.000000 0.000000 0.000000 0.000000 0.000000
-0.082651 0.375040 1.141250 35.148823 3.364759 7.517500 -39.462777 -0.665184 -7.276740 106.556905 3.405681 -18.557075 -32.708579 -7.058503 1.322565 -2.931294 -3.199257 -1.045538 -70.165255 7.123100 14.464785 132.156416 -9.350890 7.927832 -26.101270 2.827678 3.239855 -2.520125 -4.537473 0.520665 52.965839 -7.013482 -1.710148 -4.287078 -3.221855 0.720903 -1.115539 1.677912 2.012180 -9.870882 2.364416 9.381058 -18.225198 3.557144 -6.502729 -14.633894 2.177801 -30.029654 -4.163987 33.443509 -37.355103 -4.330669 -10.790321 -28.987119 10.727009 -47.525572 -13.074779 0.000000 0.000000 0.000000 0.000000 0.000000 0.000000 0.000000 0.000000 0.000000 0.000000 0.000000 0.000000 0.000000 0.000000 0.000000 0.000000 0.000000 0.000000 0.000000 0.000000 0.000000 0.000000 0.000000 0.000000 0.000000 0.000000 0.000000 0.000000 0.000000 0.000000 0.000000 0.000000 0.000000 0.000000 0.000000 0.000000 0.000000 0.000000 0.000000 0.000000 0.000000 0.000000 -8.970405 -2.297355 28.848970 -11.954972 -20.115539 29.191281 -5.316706 15.257506 32.865766 6.767627 50.435693 13.299063 0.000000 0.000000 0.000000 0.000000 0.000000 0.000000 0.000000 0.000000 0.000000 0.000000 0.000000 0.000000 0.000000 0.000000 0.000000 0.000000 0.000000 0.000000 0.000000 0.000000 0.000000 0.000000 0.000000 0.000000 0.000000 0.000000 0.000000 0.000000 0.000000 0.000000 0.000000 0.000000 0.000000 0.000000 0.000000 0.000000 0.000000 0.000000 0.000000 0.000000 0.000000 0.000000
-0.066556 0.397687 1.150245 37.157168 2.022805 8.753961 -34.733677 -0.186417 -6.677712 100.339046 2.096866 -18.456726 -31.125404 -6.101660 1.988681 -2.396943 -3.436709 -1.065259 -67.866385 7.495088 14.405341 130.288966 -9.674001 7.945358 -26.842910 2.077958 1.997004 -1.823254 -3.667076 1.075097 50.370551 -7.408647 -1.978623 -3.948667 -2.641035 0.778385 -0.699772 2.106367 2.293917 -10.234807 1.812333 8.358200 -17.856048 4.384178 -6.310031 -14.211806 3.168154 -30.097988 -2.638591 33.012465 -38.474991 -3.433707 -10.330182 -28.991379 11.043044 -44.946377 -12.958706 0.000000 0.000000 0.000000 0.000000 0.000000 0.000000 0.000000 0.000000 0.000000 0.000000 0.000000 0.000000 0.000000 0.000000 0.000000 0.000000 0.000000 0.000000 0.000000 0.000000 0.000000 0.000000 0.000000 0.000000 0.000000 0.000000 0.000000 0.000000 0.000000 0.000000 0.000000 0.000000 0.000000 0.000000 0.000000 0.000000 0.000000 0.000000 0.000000 0.000000 0.000000 0.000000 -8.302023 -2.276084 29.898216 -14.822479 -18.125349 29.977503 -6.251918 12.266966 25.377954 3.174815 49.219459 15.102267 0.000000 0.000000 0.000000 0.000000 0.000000 0.000000 0.000000 0.000000 0.000000 0.000000 0.000000 0.000000 0.000000 0.000000 0.000000 0.000000 0.000000 0.000000 0.000000 0.000000 0.000000 0.000000 0.000000 0.000000 0.000000 0.000000 0.000000 0.000000 0.000000 0.000000 0.000000 0.000000 0.000000 0.000000 0.000000 0.000000 0.000000 0.000000 0.000000 0.000000 0.000000 0.000000
-0.055074 0.419421 1.157578 38.811526 1.386680 9.491570 -31.266825 -0.615271 -6.288870 95.756148 1.158279 -18.440512 -24.654807 -3.480143 3.507235 -2.046033 -3.525250 -1.142307 -65.641967 7.376346 13.841771 128.366373 -10.113303 7.709651 -27.522778 1.585651 1.560656 -1.475354 -3.157986 1.346550 48.732437 -7.487392 -2.194484 -3.770654 -2.290288 0.770539 -0.394568 2.341338 2.445092 -10.514023 1.261077 8.031523 -17.611672 4.631628 -6.088387 -13.863552 3.976885 -29.518625 -1.331334 32.935965 -38.611197 -3.134818 -10.610624 -30.521665 10.714806 -44.304176 -13.764362 0.000000 0.000000 0.000000 0.000000 0.000000 0.000000 0.000000 0.000000 0.000000 0.000000 0.000000 0.000000 0.000000 0.000000 0.000000 0.000000 0.000000 0.000000 0.000000 0.000000 0.000000 0.000000 0.000000 0.000000 0.000000 0.000000 0.000000 0.000000 0.000000 0.000000 0.000000 0.000000 0.000000 0.000000 0.000000 0.000000 0.000000 0.000000 0.000000 0.000000 0.000000 0.000000 -8.151987 -2.313202 30.203111 -15.894583 -17.644613 30.489462 -7.336301 10.990258 22.030013 1.011838 49.095839 16.469306 0.000000 0.000000 0.000000 0.000000 0.000000 0.000000 0.000000 0.000000 0.000000 0.000000 0.000000 0.000000 0.000000 0.000000 0.000000 0.000000 0.000000 0.000000 0.000000 0.000000 0.000000 0.000000 0.000000 0.000000 0.000000 0.000000 0.000000 0.000000 0.000000 0.000000 0.000000 0.000000 0.000000 0.000000 0.000000 0.000000 0.000000 0.000000 0.000000 0.000000 0.000000 0.000000
-0.044946 0.436658 1.164160 40.276092 0.964858 9.836126 -29.270694 -1.606995 -5.773646 92.874960 1.114429 -18.591621 -19.881556 -1.752590 4.103209 -1.972302 -3.511091 -1.115943 -63.735696 7.004478 12.964123 126.054464 -10.598530 7.427464 -27.688803 1.769328 1.113114 -1.490906 -2.938926 1.417003 47.606655 -7.189635 -2.424841 -3.864932 -2.138159 0.792896 -0.162902 2.493026 2.406412 -10.655508 0.761040 7.779478 -16.824946 4.490910 -6.025660 -13.356594 4.412202 -28.348489 -0.483304 32.827931 -38.360661 -3.251217 -10.863982 -32.927976 8.743125 -44.662636 -14.906765 0.000000 0.000000 0.000000 0.000000 0.000000 0.000000 0.000000 0.000000 0.000000 0.000000 0.000000 0.000000 0.000000 0.000000 0.000000 0.000000 0.000000 0.000000 0.000000 0.000000 0.000000 0.000000 0.000000 0.000000 0.000000 0.000000 0.000000 0.000000 0.000000 0.000000 0.000000 0.000000 0.000000 0.000000 0.000000 0.000000 0.000000 0.000000 0.000000 0.000000 0.000000 0.000000 -8.150699 -2.429898 29.834761 -15.873831 -18.223639 31.230538 -8.168015 10.691599 21.181015 -1.319790 50.376676 17.865527 0.000000 0.000000 0.000000 0.000000 0.000000 0.000000 0.000000 0.000000 0.000000 0.000000 0.000000 0.000000 0.000000 0.000000 0.000000 0.000000 0.000000 0.000000 0.000000 0.000000 0.000000 0.000000 0.000000 0.000000 0.000000 0.000000 0.000000 0.000000 0.000000 0.000000 0.000000 0.000000 0.000000 0.000000 0.000000 0.000000 0.000000 0.000000 0.000000 0.000000 0.000000 0.000000
-0.034247 0.445456 1.168801 41.269356 0.411140 9.834758 -29.430268 -2.341147 -5.610433 91.871094 1.527748 -18.364602 -17.317868 -0.365331 4.004704 -1.837017 -3.609664 -1.196308 -61.626182 6.468818 12.078444 123.635884 -10.621704 6.938576 -29.175006 2.152355 0.965256 -1.337837 -2.770811 1.462290 46.701760 -6.642460 -2.577611 -3.931909 -1.893447 0.489968 -0.208387 2.652725 2.312889 -10.623759 0.191642 8.001702 -16.256666 4.378886 -5.753946 -12.700287 4.982061 -27.094897 0.030634 32.074763 -37.417827 -3.292314 -11.321425 -35.834688 7.422174 -44.722040 -16.384075 0.000000 0.000000 0.000000 0.000000 0.000000 0.000000 0.000000 0.000000 0.000000 0.000000 0.000000 0.000000 0.000000 0.000000 0.000000 0.000000 0.000000 0.000000 0.000000 0.000000 0.000000 0.000000 0.000000 0.000000 0.000000 0.000000 0.000000 0.000000 0.000000 0.000000 0.000000 0.000000 0.000000 0.000000 0.000000 0.000000 0.000000 0.000000 0.000000 0.000000 0.000000 0.000000 -8.265129 -2.703368 29.330176 -15.174021 -19.077097 32.493911 -8.328443 10.520429 20.815257 -3.674325 52.194694 19.450019 0.000000 0.000000 0.000000 0.000000 0.000000 0.000000 0.000000 0.000000 0.000000 0.000000 0.000000 0.000000 0.000000 0.000000 0.000000 0.000000 0.000000 0.000000 0.000000 0.000000 0.000000 0.000000 0.000000 0.000000 0.000000 0.000000 0.000000 0.000000 0.000000 0.000000 0.000000 0.000000 0.000000 0.000000 0.000000 0.000000 0.000000 0.000000 0.000000 0.000000 0.000000 0.000000
